<svg width="334" height="335" viewBox="0 0 334 335" fill="none" xmlns="http://www.w3.org/2000/svg">
<path d="M149.5 16C125.893 16 102.701 22.2135 82.2561 34.0161C61.811 45.8186 44.8324 62.7945 33.0266 83.2378C21.2208 103.681 15.0037 126.872 15 150.479C14.9963 174.086 21.2061 197.279 33.0055 217.726L149.5 150.5L149.5 16Z" fill="#FF0000"/>
<path d="M33.0196 217.75C44.8233 238.195 61.8 255.172 82.2439 266.977C102.688 278.782 125.879 284.998 149.486 285C173.093 285.003 196.285 278.792 216.732 266.991C237.178 255.191 254.158 238.217 265.966 217.774L149.5 150.5L33.0196 217.75Z" fill="#00FF00"/>
<path d="M265.98 217.75C277.784 197.306 283.999 174.114 284 150.507C284.001 126.9 277.789 103.708 265.987 83.2623C254.186 62.8165 237.211 45.8371 216.768 34.0302C196.326 22.2234 173.135 16.005 149.528 16.0001L149.5 150.5L265.98 217.75Z" fill="#0000FF"/>
<path d="M242.52 123.633L252.445 132.029C256.661 135.596 257.187 141.906 253.62 146.122L176.019 237.847C174.931 239.133 173.535 240.124 171.962 240.727L168.5 242.053C165.353 243.258 162.561 245.239 160.385 247.812L157.163 251.62C154.63 254.614 150.581 255.851 146.808 254.784L145.632 254.452C142.705 253.624 140.32 251.5 139.16 248.689C137.746 245.26 138.362 241.329 140.757 238.498L143.969 234.702C146.468 231.748 148.057 228.132 148.542 224.293L148.923 221.284C149.166 219.364 149.96 217.557 151.209 216.08L228.427 124.808C231.994 120.592 238.304 120.066 242.52 123.633Z" fill="white" stroke="black" stroke-width="10" stroke-linejoin="round"/>
<path d="M219.167 113.388C222.02 110.015 227.068 109.594 230.441 112.447L262.507 139.573C265.88 142.427 266.301 147.475 263.447 150.848C260.594 154.221 255.546 154.642 252.173 151.789L220.108 124.663C216.734 121.809 216.313 116.761 219.167 113.388Z" fill="black"/>
<path d="M255.512 81.2632C261.933 73.6736 273.29 72.7259 280.88 79.1464L287.751 84.9592C295.341 91.3797 296.288 102.737 289.868 110.327L269.2 134.757C262.78 142.347 251.422 143.295 243.833 136.874L236.962 131.062C229.372 124.641 228.424 113.284 234.845 105.694L255.512 81.2632Z" fill="black"/>
</svg>
